<?xml version="1.0" encoding="utf-8"?>
<!-- Generator: Adobe Illustrator 23.0.2, SVG Export Plug-In . SVG Version: 6.00 Build 0)  -->
<svg version="1.1" id="Layer_1" xmlns="http://www.w3.org/2000/svg" xmlns:xlink="http://www.w3.org/1999/xlink" x="0px" y="0px"
	 viewBox="0 0 1920 1080" style="enable-background:new 0 0 1920 1080;" xml:space="preserve">
<style type="text/css">
	.st0{fill:#776CE5;}
</style>
<g>
	<path class="st0" d="M669.15,550.54c-3.67,1.6-6.99,3.1-9.96,4.5c-2.97,1.4-6.86,2.87-11.66,4.4c-4.07,1.27-8.49,2.35-13.26,3.25
		c-4.77,0.9-10.02,1.35-15.76,1.35c-10.81,0-20.63-1.52-29.47-4.55c-8.84-3.03-16.53-7.79-23.06-14.26
		c-6.4-6.34-11.41-14.39-15.01-24.17c-3.6-9.77-5.4-21.13-5.4-34.07c0-12.27,1.73-23.25,5.2-32.92c3.47-9.67,8.47-17.84,15.01-24.52
		c6.34-6.47,13.99-11.41,22.97-14.81c8.97-3.4,18.93-5.1,29.87-5.1c8.01,0,15.99,0.97,23.97,2.9c7.97,1.94,16.83,5.34,26.57,10.21
		v23.52h-1.5c-8.21-6.87-16.35-11.87-24.42-15.01c-8.07-3.13-16.71-4.7-25.92-4.7c-7.54,0-14.33,1.22-20.36,3.65
		c-6.04,2.44-11.43,6.22-16.16,11.36c-4.6,5-8.19,11.32-10.76,18.96c-2.57,7.64-3.85,16.46-3.85,26.47
		c0,10.47,1.42,19.48,4.25,27.02c2.84,7.54,6.49,13.68,10.96,18.41c4.67,4.94,10.12,8.59,16.36,10.96
		c6.24,2.37,12.82,3.55,19.76,3.55c9.54,0,18.48-1.63,26.82-4.9c8.34-3.27,16.14-8.17,23.42-14.71h1.4V550.54z"/>
	<path class="st0" d="M776.98,561.35h-18.81v-63.64c0-5.14-0.3-9.96-0.9-14.46s-1.7-8.02-3.3-10.56c-1.67-2.8-4.07-4.89-7.2-6.25
		c-3.14-1.37-7.2-2.05-12.21-2.05c-5.14,0-10.51,1.27-16.11,3.8c-5.6,2.54-10.97,5.77-16.11,9.71v83.45h-18.81v-155.7h18.81v56.34
		c5.87-4.87,11.94-8.67,18.21-11.41c6.27-2.73,12.71-4.1,19.31-4.1c12.07,0,21.28,3.64,27.62,10.91c6.34,7.27,9.51,17.75,9.51,31.42
		V561.35z"/>
	<path class="st0" d="M884.99,561.35h-18.71v-11.91c-1.67,1.14-3.92,2.72-6.75,4.75c-2.84,2.04-5.59,3.65-8.26,4.85
		c-3.14,1.54-6.74,2.82-10.81,3.85c-4.07,1.03-8.84,1.55-14.31,1.55c-10.07,0-18.61-3.33-25.62-10.01
		c-7-6.67-10.51-15.18-10.51-25.52c0-8.47,1.82-15.33,5.45-20.56c3.64-5.24,8.82-9.36,15.56-12.36c6.8-3,14.98-5.04,24.52-6.1
		c9.54-1.07,19.78-1.87,30.72-2.4v-2.9c0-4.27-0.75-7.81-2.25-10.61c-1.5-2.8-3.65-5-6.45-6.6c-2.67-1.53-5.87-2.57-9.61-3.1
		c-3.74-0.53-7.64-0.8-11.71-0.8c-4.94,0-10.44,0.65-16.51,1.95c-6.07,1.3-12.34,3.19-18.81,5.65h-1v-19.11
		c3.67-1,8.97-2.1,15.91-3.3c6.94-1.2,13.77-1.8,20.51-1.8c7.87,0,14.73,0.65,20.56,1.95c5.84,1.3,10.89,3.52,15.16,6.65
		c4.2,3.07,7.4,7.04,9.61,11.91c2.2,4.87,3.3,10.91,3.3,18.11V561.35z M866.28,533.83v-31.12c-5.74,0.33-12.49,0.84-20.26,1.5
		c-7.77,0.67-13.93,1.64-18.46,2.9c-5.4,1.54-9.77,3.92-13.11,7.15c-3.34,3.24-5,7.69-5,13.36c0,6.4,1.93,11.22,5.8,14.46
		c3.87,3.24,9.77,4.85,17.71,4.85c6.6,0,12.64-1.28,18.11-3.85C856.54,540.52,861.61,537.43,866.28,533.83z"/>
	<path class="st0" d="M924.89,430.87h-21.21v-19.51h21.21V430.87z M923.69,561.35h-18.81V449.58h18.81V561.35z"/>
	<path class="st0" d="M1031.99,561.35h-18.81v-63.64c0-5.14-0.3-9.96-0.9-14.46s-1.7-8.02-3.3-10.56c-1.67-2.8-4.07-4.89-7.2-6.25
		c-3.14-1.37-7.2-2.05-12.21-2.05c-5.14,0-10.51,1.27-16.11,3.8c-5.6,2.54-10.97,5.77-16.11,9.71v83.45h-18.81V449.58h18.81v12.41
		c5.87-4.87,11.94-8.67,18.21-11.41c6.27-2.73,12.71-4.1,19.31-4.1c12.07,0,21.28,3.64,27.62,10.91c6.34,7.27,9.51,17.75,9.51,31.42
		V561.35z"/>
	<path class="st0" d="M1175.57,550.54c-3.67,1.6-6.99,3.1-9.96,4.5c-2.97,1.4-6.86,2.87-11.66,4.4c-4.07,1.27-8.49,2.35-13.26,3.25
		c-4.77,0.9-10.02,1.35-15.76,1.35c-10.81,0-20.63-1.52-29.47-4.55c-8.84-3.03-16.53-7.79-23.06-14.26
		c-6.4-6.34-11.41-14.39-15.01-24.17c-3.6-9.77-5.4-21.13-5.4-34.07c0-12.27,1.73-23.25,5.2-32.92c3.47-9.67,8.47-17.84,15.01-24.52
		c6.34-6.47,13.99-11.41,22.97-14.81c8.97-3.4,18.93-5.1,29.87-5.1c8.01,0,15.99,0.97,23.97,2.9c7.97,1.94,16.83,5.34,26.57,10.21
		v23.52h-1.5c-8.21-6.87-16.35-11.87-24.42-15.01c-8.07-3.13-16.71-4.7-25.92-4.7c-7.54,0-14.33,1.22-20.36,3.65
		c-6.04,2.44-11.43,6.22-16.16,11.36c-4.6,5-8.19,11.32-10.76,18.96c-2.57,7.64-3.85,16.46-3.85,26.47
		c0,10.47,1.42,19.48,4.25,27.02c2.84,7.54,6.49,13.68,10.96,18.41c4.67,4.94,10.12,8.59,16.36,10.96
		c6.24,2.37,12.82,3.55,19.76,3.55c9.54,0,18.48-1.63,26.82-4.9c8.34-3.27,16.14-8.17,23.42-14.71h1.4V550.54z"/>
	<path class="st0" d="M1214.54,430.87h-21.21v-19.51h21.21V430.87z M1213.34,561.35h-18.81V449.58h18.81V561.35z"/>
	<path class="st0" d="M1300.85,470.09h-1c-2.8-0.67-5.52-1.15-8.15-1.45c-2.64-0.3-5.75-0.45-9.36-0.45
		c-5.8,0-11.41,1.29-16.81,3.85c-5.4,2.57-10.61,5.89-15.61,9.96v79.35h-18.81V449.58h18.81v16.51c7.47-6,14.06-10.26,19.76-12.76
		c5.7-2.5,11.52-3.75,17.46-3.75c3.27,0,5.64,0.08,7.1,0.25c1.47,0.17,3.67,0.48,6.6,0.95V470.09z"/>
	<path class="st0" d="M1393.45,554.35c-6.27,3-12.22,5.34-17.86,7c-5.64,1.67-11.63,2.5-17.96,2.5c-8.07,0-15.48-1.19-22.21-3.55
		c-6.74-2.37-12.51-5.95-17.31-10.76c-4.87-4.8-8.64-10.87-11.31-18.21c-2.67-7.34-4-15.91-4-25.72c0-18.28,5.02-32.62,15.06-43.03
		c10.04-10.41,23.3-15.61,39.78-15.61c6.4,0,12.69,0.9,18.86,2.7c6.17,1.8,11.82,4,16.96,6.6v20.91h-1
		c-5.74-4.47-11.66-7.91-17.76-10.31c-6.1-2.4-12.06-3.6-17.86-3.6c-10.67,0-19.1,3.59-25.27,10.76c-6.17,7.17-9.26,17.7-9.26,31.57
		c0,13.48,3.02,23.83,9.06,31.07c6.04,7.24,14.52,10.86,25.47,10.86c3.8,0,7.67-0.5,11.61-1.5c3.94-1,7.47-2.3,10.61-3.9
		c2.73-1.4,5.3-2.88,7.7-4.45c2.4-1.57,4.3-2.92,5.7-4.05h1V554.35z"/>
	<path class="st0" d="M1427.36,561.35h-18.81v-155.7h18.81V561.35z"/>
	<path class="st0" d="M1543.07,507.42h-82.35c0,6.87,1.03,12.86,3.1,17.96c2.07,5.1,4.9,9.29,8.51,12.56
		c3.47,3.2,7.59,5.6,12.36,7.2c4.77,1.6,10.02,2.4,15.76,2.4c7.6,0,15.26-1.52,22.96-4.55c7.71-3.03,13.19-6.02,16.46-8.96h1v20.51
		c-6.34,2.67-12.81,4.9-19.41,6.7c-6.6,1.8-13.54,2.7-20.81,2.7c-18.55,0-33.02-5.02-43.43-15.06
		c-10.41-10.04-15.61-24.3-15.61-42.78c0-18.28,4.99-32.79,14.96-43.53c9.97-10.74,23.1-16.11,39.38-16.11
		c15.08,0,26.7,4.4,34.87,13.21c8.17,8.81,12.26,21.31,12.26,37.52V507.42z M1524.76,493.01c-0.07-9.87-2.55-17.51-7.45-22.91
		c-4.91-5.4-12.36-8.11-22.37-8.11c-10.07,0-18.1,2.97-24.06,8.91c-5.97,5.94-9.36,13.31-10.16,22.11H1524.76z"/>
	<g>
		<g>
			<g>
				<path class="st0" d="M407.87,451.95c-7.18-7.31-17.29-12.58-28.18-14.82v22.03c4.92,0.87,9.62,2.85,13.57,5.76
					c6.72,4.86,11,12.13,11.77,19.98c0.86,8.24-2.22,16.65-8.46,23.1c-4.44,4.65-10.32,8.1-16.89,10.04v6.08
					c8.87-1.03,17.37-4.38,24.25-9.65c9.73-7.34,15.79-18.14,16.65-29.61C421.57,472.99,416.94,461,407.87,451.95z"/>
			</g>
			<g>
				<path class="st0" d="M460.36,405.5c-11.46-10.64-25.52-19.42-40.7-25.37c-12.48-4.9-26.16-8.08-39.97-9.28v22.42
					c24.42,1.22,48.08,10.17,66.02,25.17c20.62,17.01,32.88,41.18,33.65,66.31c0.94,25.52-10.04,50.85-30.13,69.51
					c-18.12,17.07-43.07,27.9-69.54,30.44v5.12c28.46-1.22,56.09-11.55,76.92-29.07c23.59-19.53,37.56-47.24,38.33-76
					C495.94,455.61,483.33,426.7,460.36,405.5z"/>
			</g>
			<path class="st0" d="M436.18,428.69c-14.63-14.03-34.9-22.98-56.49-25.09V426c15.35,0.79,30.29,6.32,41.84,15.64
				c13.66,10.95,21.94,26.66,22.73,43.15c0.9,16.88-6.11,33.76-19.26,46.31c-11.73,11.36-27.96,18.76-45.31,20.83v5.17
				c19.42-0.77,38.26-7.69,52.67-19.51c16.65-13.45,26.66-32.71,27.48-52.8C460.82,464.27,452.19,443.83,436.18,428.69z"/>
		</g>
		<g>
			<g>
				<path class="st0" d="M351.51,518.15c7.18,7.31,17.29,12.58,28.18,14.82v-22.03c-4.92-0.87-9.62-2.85-13.57-5.76
					c-6.72-4.86-11-12.13-11.77-19.98c-0.86-8.24,2.22-16.65,8.46-23.1c4.44-4.65,10.32-8.1,16.89-10.04v-6.08
					c-8.87,1.03-17.37,4.38-24.25,9.65c-9.73,7.34-15.79,18.14-16.65,29.61C337.8,497.11,342.44,509.11,351.51,518.15z"/>
			</g>
			<g>
				<path class="st0" d="M299.01,564.6c11.46,10.64,25.52,19.42,40.7,25.37c12.48,4.9,26.16,8.08,39.97,9.28v-22.42
					c-24.42-1.22-48.08-10.17-66.02-25.17c-20.62-17.01-32.88-41.18-33.65-66.31c-0.94-25.52,10.04-50.85,30.13-69.51
					c18.12-17.07,43.07-27.9,69.54-30.44v-5.12c-28.46,1.22-56.09,11.55-76.92,29.07c-23.59,19.53-37.56,47.24-38.33,76
					C263.43,514.49,276.04,543.4,299.01,564.6z"/>
			</g>
			<path class="st0" d="M323.2,541.41c14.63,14.03,34.9,22.98,56.49,25.09v-22.4c-15.35-0.79-30.29-6.32-41.84-15.64
				c-13.66-10.95-21.94-26.66-22.73-43.15c-0.9-16.88,6.11-33.76,19.26-46.31c11.73-11.36,27.96-18.76,45.31-20.83v-5.17
				c-19.42,0.77-38.26,7.69-52.67,19.51c-16.65,13.45-26.66,32.71-27.48,52.8C298.55,505.83,307.19,526.27,323.2,541.41z"/>
		</g>
	</g>
	<g>
		<path class="st0" d="M1574.59,441.72c-6.07,0-11.25-2.13-15.53-6.4c-4.28-4.27-6.42-9.44-6.42-15.51s2.14-11.25,6.42-15.53
			c4.28-4.28,9.46-6.42,15.53-6.42c6.05,0,11.22,2.14,15.5,6.42c4.28,4.28,6.42,9.46,6.42,15.53s-2.14,11.25-6.42,15.51
			C1585.81,439.58,1580.64,441.72,1574.59,441.72z M1574.63,401.28c-5.12,0-9.5,1.81-13.12,5.42c-3.62,3.61-5.43,7.98-5.43,13.1
			c0,5.1,1.81,9.45,5.43,13.06c3.62,3.61,8,5.42,13.12,5.42c5.1,0,9.45-1.81,13.05-5.42c3.6-3.61,5.4-7.96,5.4-13.06
			c0-5.12-1.8-9.49-5.4-13.1C1584.08,403.09,1579.73,401.28,1574.63,401.28z M1585.24,433.52h-5.05l-3.04-6.7
			c-1.54-3.37-3.2-5.05-4.98-5.05h-1.9v11.75h-4.28V405.6h7.87c3.24,0,5.75,0.68,7.52,2.05c1.77,1.37,2.65,3.22,2.65,5.56
			c0,1.9-0.62,3.53-1.87,4.89c-1.24,1.35-2.98,2.26-5.2,2.73v0.11c1.54,0.34,3.07,2.06,4.61,5.16L1585.24,433.52z M1570.27,409.22
			v8.97h3.44c3.85,0,5.78-1.5,5.78-4.5c0-1.73-0.52-2.91-1.56-3.53c-1.04-0.62-2.68-0.93-4.92-0.93H1570.27z"/>
	</g>
</g>
</svg>
