<?xml version="1.0" encoding="utf-8"?>
<!-- Generator: Adobe Illustrator 23.0.2, SVG Export Plug-In . SVG Version: 6.00 Build 0)  -->
<svg version="1.1" id="Layer_1" xmlns="http://www.w3.org/2000/svg" xmlns:xlink="http://www.w3.org/1999/xlink" x="0px" y="0px"
	 viewBox="0 0 1920 1080" style="enable-background:new 0 0 1920 1080;" xml:space="preserve">
<style type="text/css">
	.st0{fill:#776CE5;}
</style>
<g>
	<g>
		<g>
			<path class="st0" d="M1021.1,468.85c-15.57-15.84-37.48-27.27-61.1-32.14v47.77c10.67,1.89,20.86,6.18,29.43,12.48
				c14.57,10.55,23.86,26.3,25.53,43.32c1.86,17.86-4.81,36.09-18.34,50.09c-9.62,10.08-22.38,17.56-36.62,21.77v13.19
				c19.24-2.23,37.67-9.5,52.58-20.92c21.1-15.92,34.24-39.33,36.1-64.2C1050.82,514.48,1040.77,488.47,1021.1,468.85z"/>
		</g>
		<g>
			<path class="st0" d="M1134.92,368.13c-24.86-23.07-55.34-42.1-88.25-55C1019.63,302.5,989.96,295.6,960,293v48.61
				c52.96,2.65,104.25,22.06,143.16,54.58c44.72,36.89,71.29,89.29,72.96,143.79c2.05,55.34-21.76,110.26-65.34,150.72
				c-39.29,37.02-93.39,60.51-150.78,66.01v11.09c61.72-2.65,121.63-25.04,166.78-63.03c51.15-42.35,81.44-102.44,83.1-164.79
				C1212.08,476.79,1184.74,414.1,1134.92,368.13z"/>
		</g>
		<path class="st0" d="M1082.49,418.42c-31.72-30.42-75.68-49.83-122.49-54.41v48.57c33.29,1.72,65.67,13.7,90.72,33.91
			c29.62,23.74,47.58,57.82,49.29,93.57c1.95,36.6-13.24,73.2-41.77,100.42c-25.43,24.62-60.63,40.67-98.25,45.17v11.22
			c42.1-1.68,82.96-16.68,114.2-42.31c36.1-29.16,57.82-70.93,59.58-114.5C1135.92,495.57,1117.21,451.24,1082.49,418.42z"/>
	</g>
	<g>
		<g>
			<path class="st0" d="M898.9,612.41c15.57,15.84,37.48,27.27,61.1,32.14v-47.77c-10.67-1.89-20.86-6.18-29.43-12.48
				c-14.57-10.55-23.86-26.3-25.53-43.32c-1.86-17.86,4.81-36.09,18.34-50.09c9.62-10.08,22.38-17.56,36.62-21.77v-13.19
				c-19.24,2.23-37.67,9.5-52.58,20.92c-21.1,15.92-34.24,39.33-36.1,64.2C869.18,566.77,879.23,592.78,898.9,612.41z"/>
		</g>
		<g>
			<path class="st0" d="M785.08,713.12c24.86,23.07,55.34,42.1,88.25,55c27.05,10.63,56.72,17.52,86.68,20.13v-48.61
				c-52.96-2.65-104.25-22.06-143.16-54.58c-44.72-36.89-71.29-89.29-72.96-143.79c-2.05-55.34,21.76-110.26,65.34-150.72
				c39.29-37.02,93.39-60.51,150.78-66.01v-11.09c-61.72,2.65-121.63,25.04-166.78,63.03c-51.15,42.35-81.44,102.44-83.1,164.79
				C707.92,604.46,735.26,667.16,785.08,713.12z"/>
		</g>
		<path class="st0" d="M837.51,662.83c31.72,30.42,75.68,49.83,122.49,54.41v-48.57c-33.29-1.72-65.67-13.7-90.72-33.91
			c-29.62-23.74-47.58-57.82-49.29-93.57c-1.95-36.6,13.24-73.2,41.77-100.42c25.43-24.62,60.63-40.67,98.25-45.17v-11.22
			c-42.1,1.68-82.96,16.68-114.2,42.31c-36.1,29.16-57.82,70.93-59.58,114.5C784.08,585.68,802.79,630.01,837.51,662.83z"/>
	</g>
</g>
</svg>
